<svg width="23" height="22" viewBox="0 0 23 22" fill="none" xmlns="http://www.w3.org/2000/svg">
<path d="M18.6 16.05C17.52 16.05 16.53 15.26 16.44 14.18C16.38 13.55 16.62 12.96 17.04 12.55C17.41 12.17 17.92 11.95 18.48 11.95M18.6 16.05H20.5V17.24C20.5 19.31 18.81 21 16.74 21H5.26C3.19 21 1.5 19.31 1.5 17.24V10.51C1.5 8.44 3.19 6.75 5.26 6.75H16.74C18.81 6.75 20.5 8.44 20.5 10.51V11.95H18.48M18.6 16.05L20.559 16.05C21.119 16.03 21.559 15.58 21.559 15.03V12.97C21.559 12.42 21.119 11.97 20.559 11.95L18.48 11.95M18.6 16.05C17.52 16.05 16.529 15.26 16.439 14.18C16.379 13.55 16.619 12.96 17.039 12.55C17.409 12.17 17.92 11.95 18.48 11.95M1.5 11.41V6.84C1.5 5.65 2.23 4.59 3.34 4.17L11.28 1.17C11.5677 1.06158 11.8774 1.0246 12.1825 1.06222C12.4876 1.09985 12.7791 1.21095 13.0318 1.386C13.2846 1.56104 13.491 1.79481 13.6335 2.06722C13.7761 2.33963 13.8503 2.64256 13.85 2.95V6.75M6 11H13" stroke="black" stroke-width="1.5" stroke-linecap="round" stroke-linejoin="round"/>
</svg>
