<svg width="22" height="22" viewBox="0 0 22 22" fill="none" xmlns="http://www.w3.org/2000/svg">
<path d="M5.49995 21H16.5M8.49995 13H13.5M15.7 17.98H6.29995C5.87995 17.98 5.40995 17.65 5.26995 17.25L1.12995 5.66999C0.539955 4.00999 1.22996 3.49999 2.64996 4.51999L6.54995 7.30999C7.19995 7.75999 7.93995 7.52999 8.21995 6.79999L9.97995 2.10999C10.54 0.609985 11.47 0.609985 12.03 2.10999L13.79 6.79999C14.07 7.52999 14.81 7.75999 15.45 7.30999L19.11 4.69999C20.67 3.57999 21.42 4.14999 20.78 5.95999L16.74 17.27C16.59 17.65 16.12 17.98 15.7 17.98V17.98Z" stroke="black" stroke-width="1.5" stroke-linecap="round" stroke-linejoin="round"/>
</svg>
