<svg width="116" height="56" viewBox="0 0 116 56" fill="none" xmlns="http://www.w3.org/2000/svg">
<path d="M35.1304 31.5496V0.706597H52.4297V54.9734H35.9103V44.869H35.3431C34.1378 48.19 32.0818 50.828 29.1749 52.7829C26.2917 54.7143 22.8058 55.68 18.7173 55.68C15.0069 55.68 11.7456 54.8321 8.93326 53.1362C6.12094 51.4404 3.93489 49.0733 2.37511 46.0349C0.815338 42.973 0.0236335 39.3929 5.89838e-07 35.2946V0.706597H17.3348V31.9029C17.3584 34.8471 18.1383 37.1671 19.6744 38.8629C21.2106 40.5588 23.3021 41.4067 25.949 41.4067C27.6742 41.4067 29.2222 41.0298 30.5929 40.2761C31.9872 39.4989 33.0862 38.3801 33.8897 36.9198C34.7168 35.4359 35.1304 33.6459 35.1304 31.5496Z" fill="#AAD3A7"/>
<path d="M80.7982 24.0244V54.9734H63.4634V0.706597H79.9474V10.6696H80.55C81.7553 7.34863 83.8114 4.74599 86.7182 2.86172C89.6251 0.953908 93.0873 0 97.1049 0C100.933 0 104.254 0.859694 107.066 2.57908C109.902 4.27492 112.1 6.6538 113.66 9.71573C115.243 12.7541 116.023 16.3107 115.999 20.3854V54.9734H98.6647V23.7771C98.6883 20.7622 97.9203 18.4069 96.3605 16.7111C94.8244 15.0152 92.6856 14.1673 89.9441 14.1673C88.1244 14.1673 86.5174 14.5677 85.123 15.3685C83.7523 16.1458 82.6888 17.2646 81.9326 18.7249C81.1999 20.1852 80.8218 21.9517 80.7982 24.0244Z" fill="#AAD3A7"/>
<path d="M4.47009 27.0014V23.2186H6.6713V29.8743H4.56933V28.635H4.49716C4.34379 29.0424 4.08216 29.3659 3.71229 29.6057C3.34542 29.8426 2.90187 29.961 2.38164 29.961C1.90952 29.961 1.49454 29.857 1.1367 29.649C0.778849 29.441 0.500694 29.1507 0.302223 28.778C0.103753 28.4025 0.00300712 27.9634 0 27.4608V23.2186H2.20573V27.0448C2.20873 27.4059 2.30797 27.6904 2.50343 27.8984C2.69889 28.1064 2.96502 28.2104 3.30182 28.2104C3.52134 28.2104 3.71831 28.1642 3.89272 28.0717C4.07014 27.9764 4.20997 27.8392 4.31222 27.6601C4.41747 27.4781 4.47009 27.2585 4.47009 27.0014Z" fill="black"/>
<path d="M21.4588 26.0785V29.8743H19.2531V23.2186H21.3505V24.4405H21.4272C21.5806 24.0332 21.8422 23.714 22.2121 23.4829C22.582 23.2489 23.0225 23.1319 23.5337 23.1319C24.0209 23.1319 24.4434 23.2374 24.8012 23.4482C25.1621 23.6562 25.4417 23.948 25.6402 24.3235C25.8417 24.6962 25.9409 25.1324 25.9379 25.6322V29.8743H23.7322V26.0481C23.7352 25.6784 23.6375 25.3895 23.439 25.1815C23.2435 24.9735 22.9714 24.8695 22.6226 24.8695C22.391 24.8695 22.1865 24.9186 22.0091 25.0169C21.8347 25.1122 21.6994 25.2494 21.6031 25.4285C21.5099 25.6076 21.4618 25.8243 21.4588 26.0785Z" fill="black"/>
<path d="M38.4814 29.8743V21H42.2974C42.989 21 43.5859 21.1199 44.0881 21.3597C44.5933 21.5965 44.9827 21.9374 45.2564 22.3823C45.53 22.8243 45.6669 23.3486 45.6669 23.9552C45.6669 24.5705 45.527 25.0934 45.2474 25.5238C44.9677 25.9514 44.5708 26.2778 44.0566 26.5031C43.5423 26.7256 42.9334 26.8368 42.2297 26.8368H39.8165V25.1468H41.8147C42.1515 25.1468 42.4327 25.105 42.6582 25.0212C42.8868 24.9345 43.0597 24.8045 43.177 24.6312C43.2943 24.455 43.3529 24.2297 43.3529 23.9552C43.3529 23.6808 43.2943 23.454 43.177 23.2749C43.0597 23.0929 42.8868 22.9571 42.6582 22.8676C42.4297 22.7752 42.1485 22.7289 41.8147 22.7289H40.7141V29.8743H38.4814ZM43.6822 25.8185L45.9826 29.8743H43.5469L41.2915 25.8185H43.6822Z" fill="black"/>
<path d="M60.0225 29.987C59.5804 29.987 59.188 29.9162 58.8452 29.7747C58.5054 29.6302 58.2362 29.4136 58.0378 29.1247C57.8423 28.8329 57.7446 28.4675 57.7446 28.0284C57.7446 27.6586 57.8122 27.3467 57.9476 27.0924C58.0829 26.8382 58.2693 26.6317 58.5069 26.4728C58.7445 26.3139 59.0181 26.194 59.3278 26.1131C59.6376 26.0294 59.9683 25.973 60.3202 25.9442C60.7141 25.9095 61.0314 25.8734 61.2719 25.8358C61.5125 25.7954 61.6869 25.739 61.7952 25.6668C61.9064 25.5917 61.9621 25.4863 61.9621 25.3505V25.3288C61.9621 25.1064 61.8824 24.9345 61.723 24.8132C61.5636 24.6919 61.3486 24.6312 61.078 24.6312C60.7863 24.6312 60.5517 24.6919 60.3743 24.8132C60.1969 24.9345 60.0841 25.1021 60.036 25.3158L58.0017 25.2465C58.0618 24.8421 58.2167 24.481 58.4663 24.1632C58.7189 23.8426 59.0647 23.5912 59.5038 23.4092C59.9458 23.2244 60.4766 23.1319 61.096 23.1319C61.5381 23.1319 61.9455 23.1825 62.3184 23.2836C62.6913 23.3818 63.0161 23.5262 63.2927 23.7169C63.5694 23.9047 63.7829 24.1358 63.9332 24.4102C64.0866 24.6846 64.1633 24.9981 64.1633 25.3505V29.8743H62.0884V28.947H62.0342C61.911 29.1724 61.7531 29.363 61.5606 29.519C61.3712 29.675 61.1471 29.792 60.8885 29.87C60.6329 29.948 60.3442 29.987 60.0225 29.987ZM60.7036 28.6004C60.9412 28.6004 61.1547 28.5542 61.3441 28.4617C61.5366 28.3693 61.6899 28.2422 61.8042 28.0804C61.9185 27.9157 61.9756 27.7251 61.9756 27.5084V26.8758C61.9125 26.9076 61.8358 26.9364 61.7456 26.9624C61.6584 26.9884 61.5621 27.013 61.4569 27.0361C61.3516 27.0592 61.2434 27.0794 61.1321 27.0968C61.0208 27.1141 60.9141 27.13 60.8119 27.1444C60.6044 27.1762 60.4269 27.2253 60.2796 27.2918C60.1352 27.3582 60.024 27.4449 59.9458 27.5518C59.8706 27.6558 59.833 27.78 59.833 27.9244C59.833 28.144 59.9142 28.3115 60.0766 28.4271C60.242 28.5426 60.451 28.6004 60.7036 28.6004Z" fill="black"/>
<path d="M83.1626 23.2186L80.7855 29.8743H78.2595L75.8869 23.2186H78.2099L79.4864 27.8031H79.5586L80.8396 23.2186H83.1626Z" fill="black"/>
<path d="M98.2016 30C97.4769 30 96.8514 29.8628 96.3252 29.5883C95.8019 29.311 95.399 28.9167 95.1163 28.4054C94.8366 27.8912 94.6968 27.2802 94.6968 26.5725C94.6968 25.8849 94.8381 25.2841 95.1208 24.7699C95.4035 24.2528 95.8019 23.8512 96.3162 23.5652C96.8304 23.2764 97.4363 23.1319 98.134 23.1319C98.6271 23.1319 99.0782 23.2056 99.4872 23.3529C99.8961 23.5002 100.249 23.7183 100.547 24.0072C100.845 24.2961 101.076 24.6529 101.242 25.0775C101.407 25.4993 101.49 25.9831 101.49 26.5291V27.0578H95.4681V25.8272H99.4375C99.4345 25.6018 99.3789 25.4011 99.2707 25.2248C99.1624 25.0486 99.0135 24.9114 98.8241 24.8132C98.6377 24.7121 98.4226 24.6615 98.1791 24.6615C97.9325 24.6615 97.7115 24.715 97.516 24.8219C97.3205 24.9259 97.1657 25.0688 97.0514 25.2508C96.9371 25.4299 96.877 25.6336 96.871 25.8618V27.1141C96.871 27.3857 96.9266 27.624 97.0379 27.8291C97.1491 28.0313 97.307 28.1887 97.5115 28.3014C97.716 28.4141 97.9595 28.4704 98.2422 28.4704C98.4377 28.4704 98.6151 28.4444 98.7745 28.3924C98.9339 28.3404 99.0707 28.2638 99.1849 28.1627C99.2992 28.0616 99.3849 27.9374 99.4421 27.7901L101.467 27.8464C101.383 28.2826 101.198 28.6625 100.913 28.986C100.63 29.3067 100.258 29.5566 99.7984 29.7357C99.3383 29.9119 98.8061 30 98.2016 30Z" fill="black"/>
<path d="M116 21V29.8743H113.794V21H116Z" fill="black"/>
<path d="M2.04832 33.2827V34.1378H1.1021e-06V33.2827H2.04832ZM0.429114 32.4086H1.46277V35.7838C1.46277 35.8551 1.47264 35.9129 1.49237 35.9572C1.51351 36 1.54381 36.0309 1.58327 36.0499C1.62273 36.0673 1.66993 36.076 1.72489 36.076C1.76435 36.076 1.80592 36.0721 1.84961 36.0641C1.8947 36.0546 1.92852 36.0467 1.95107 36.0404L2.1075 36.8789C2.05818 36.8947 1.98842 36.9145 1.89823 36.9382C1.80945 36.962 1.70305 36.977 1.57903 36.9834C1.33665 36.996 1.1288 36.9644 0.955462 36.8884C0.783536 36.8108 0.651774 36.6904 0.560174 36.5273C0.469983 36.3642 0.426295 36.1591 0.429114 35.9121V32.4086Z" fill="black"/>
<path d="M14.0366 34.8504V36.9311H13.0029V32.0665H14.0028V33.9525H14.0387C14.112 33.7276 14.2318 33.5519 14.3981 33.4252C14.5658 33.2985 14.7708 33.2352 15.0132 33.2352C15.2415 33.2352 15.4402 33.2922 15.6093 33.4062C15.7784 33.5186 15.9095 33.6778 16.0025 33.8836C16.0969 34.0895 16.1434 34.3302 16.142 34.6057V36.9311H15.1083V34.8337C15.1097 34.631 15.0646 34.4727 14.973 34.3587C14.8814 34.2447 14.7525 34.1876 14.5862 34.1876C14.4777 34.1876 14.3819 34.2146 14.2987 34.2684C14.217 34.3207 14.1529 34.3959 14.1064 34.4941C14.0613 34.5922 14.038 34.711 14.0366 34.8504Z" fill="black"/>
<path d="M28.6625 37C28.3228 37 28.0297 36.9248 27.7831 36.7743C27.5379 36.6223 27.349 36.4062 27.2166 36.1259C27.0855 35.844 27.02 35.5091 27.02 35.1211C27.02 34.7443 27.0862 34.4149 27.2187 34.133C27.3512 33.8496 27.5379 33.6295 27.7789 33.4727C28.0198 33.3143 28.3038 33.2352 28.6307 33.2352C28.8619 33.2352 29.0732 33.2755 29.2649 33.3563C29.4565 33.4371 29.6221 33.5566 29.7616 33.715C29.9012 33.8733 30.0097 34.0689 30.0872 34.3017C30.1647 34.5329 30.2034 34.7981 30.2034 35.0974V35.3872H27.3815V34.7126H29.2416C29.2402 34.5891 29.2142 34.479 29.1634 34.3824C29.1127 34.2858 29.0429 34.2106 28.9542 34.1568C28.8668 34.1013 28.766 34.0736 28.6519 34.0736C28.5363 34.0736 28.4327 34.1029 28.3411 34.1615C28.2495 34.2185 28.177 34.2969 28.1234 34.3967C28.0699 34.4949 28.0417 34.6065 28.0389 34.7316V35.4181C28.0389 35.5669 28.0649 35.6975 28.1171 35.81C28.1692 35.9208 28.2432 36.0071 28.339 36.0689C28.4349 36.1306 28.549 36.1615 28.6815 36.1615C28.7731 36.1615 28.8562 36.1473 28.9309 36.1188C29.0056 36.0903 29.0697 36.0483 29.1233 35.9929C29.1768 35.9375 29.217 35.8694 29.2438 35.7886L30.1929 35.8195C30.1534 36.0586 30.0667 36.2668 29.9329 36.4442C29.8004 36.62 29.6264 36.7569 29.4107 36.8551C29.1951 36.9517 28.9457 37 28.6625 37Z" fill="black"/>
<path d="M53.7631 36.9311L52.5032 32.0665H53.6595L54.3127 35.2542H54.3486L55.0948 32.0665H56.0376L56.7838 35.2613H56.8197L57.475 32.0665H58.6291L57.3714 36.9311H56.3631L55.5831 33.981H55.5493L54.7693 36.9311H53.7631Z" fill="black"/>
<path d="M73.2492 34.4988C73.2492 35.034 73.1576 35.4877 72.9744 35.8599C72.7912 36.232 72.5431 36.5146 72.2303 36.7078C71.9189 36.901 71.5694 36.9976 71.1818 36.9976C70.7929 36.9976 70.4427 36.9002 70.1312 36.7055C69.8198 36.5107 69.5725 36.228 69.3893 35.8575C69.2075 35.4854 69.1166 35.0325 69.1166 34.4988C69.1166 33.9636 69.2075 33.5099 69.3893 33.1378C69.5725 32.7656 69.8198 32.483 70.1312 32.2898C70.4427 32.0966 70.7929 32 71.1818 32C71.5694 32 71.9189 32.0966 72.2303 32.2898C72.5431 32.483 72.7912 32.7656 72.9744 33.1378C73.1576 33.5099 73.2492 33.9636 73.2492 34.4988ZM72.1796 34.4988C72.1796 34.1821 72.1394 33.9145 72.0591 33.696C71.9802 33.4774 71.866 33.312 71.7166 33.1995C71.5687 33.0871 71.3904 33.0309 71.1818 33.0309C70.9747 33.0309 70.7964 33.0871 70.647 33.1995C70.4976 33.312 70.3828 33.4774 70.3025 33.696C70.2236 33.9145 70.1841 34.1821 70.1841 34.4988C70.1841 34.8155 70.2236 35.0831 70.3025 35.3017C70.3828 35.5202 70.4976 35.6857 70.647 35.7981C70.7964 35.9105 70.9747 35.9667 71.1818 35.9667C71.3904 35.9667 71.5687 35.9105 71.7166 35.7981C71.866 35.6857 71.9802 35.5202 72.0591 35.3017C72.1394 35.0831 72.1796 34.8155 72.1796 34.4988Z" fill="black"/>
<path d="M84.2175 36.9311V32.0665H86.0058C86.33 32.0665 86.6097 32.1322 86.845 32.2637C87.0818 32.3935 87.2643 32.5804 87.3925 32.8242C87.5208 33.0665 87.5849 33.3539 87.5849 33.6865C87.5849 34.0238 87.5193 34.3104 87.3883 34.5463C87.2572 34.7807 87.0712 34.9596 86.8302 35.0831C86.5893 35.2051 86.3039 35.266 85.9741 35.266H84.8432V34.3397H85.7797C85.9375 34.3397 86.0693 34.3167 86.1749 34.2708C86.2821 34.2233 86.3631 34.152 86.418 34.057C86.473 33.9604 86.5005 33.8369 86.5005 33.6865C86.5005 33.536 86.473 33.4117 86.418 33.3135C86.3631 33.2138 86.2821 33.1393 86.1749 33.0903C86.0678 33.0396 85.9361 33.0143 85.7797 33.0143H85.2639V36.9311H84.2175ZM86.6548 34.7078L87.7328 36.9311H86.5914L85.5345 34.7078H86.6548Z" fill="black"/>
<path d="M98.5163 36.9311V32.0665H99.5626V35.9762H101.364V36.9311H98.5163Z" fill="black"/>
<path d="M113.863 36.9311H112.263V32.0665H113.861C114.302 32.0665 114.682 32.1639 115 32.3587C115.32 32.5519 115.567 32.8306 115.74 33.1948C115.913 33.5574 116 33.9913 116 34.4964C116 35.0032 115.913 35.4386 115.74 35.8028C115.568 36.1671 115.322 36.4466 115.002 36.6413C114.682 36.8345 114.303 36.9311 113.863 36.9311ZM113.309 35.9287H113.823C114.065 35.9287 114.27 35.8828 114.438 35.791C114.607 35.6975 114.735 35.5463 114.82 35.3373C114.908 35.1267 114.952 34.8464 114.952 34.4964C114.952 34.1465 114.908 33.8678 114.82 33.6603C114.733 33.4513 114.604 33.3009 114.434 33.209C114.265 33.1156 114.056 33.0689 113.808 33.0689H113.309V35.9287Z" fill="black"/>
</svg>
